<svg width="238" height="297" viewBox="0 0 238 297" fill="none" xmlns="http://www.w3.org/2000/svg">
<path d="M86.4763 294.293C97.3201 299.646 113.032 295.408 126.532 295.408V295.631H160.612C169.464 295.408 173.448 292.731 170.35 282.247C164.374 262.617 166.809 242.988 182.521 229.604C202.881 212.205 213.282 189.006 227.003 167.369C242.273 143.278 236.961 118.517 237.625 93.5342C237.847 85.5039 231.208 82.8271 223.905 86.6192C219.479 89.0729 216.602 93.0881 213.725 97.1033C204.209 110.487 200.889 126.102 197.348 141.716C195.357 150.639 191.595 158.223 180.972 159.338C170.35 160.454 164.817 154.208 161.055 145.731C154.859 131.678 153.752 116.51 154.195 101.118C154.416 90.8574 156.186 79.9272 152.203 70.5585C145.121 54.0517 144.365 39.9335 143.793 34.422C142.578 27.5804 141.44 23.5228 140.156 20.3467C139.04 17.4275 137.639 14.5901 135.827 11.8932C135.827 11.8932 133.931 8.38951 130.268 5.21621C127.735 2.92881 124.768 1.25094 120.999 0.515742C116.902 -0.341379 113.399 -0.109706 110.679 1.0586C101.827 4.52694 104.844 16.3537 104.844 16.3537C105.729 21.0381 107.279 25.7225 108.828 31.076C109.614 33.7942 115.024 46.0213 115.909 51.821C118.786 68.997 121.885 86.1731 124.319 103.572C124.983 107.364 125.204 112.718 119.893 113.833C115.246 114.725 112.147 111.156 110.155 107.364C105.951 99.78 104.18 91.5266 103.516 83.2732C102.41 67.8817 93.1152 58.2899 81.8288 50.2596C74.5259 44.906 66.5591 43.7907 59.92 52.2672C53.5023 60.7436 53.9449 69.8893 62.3543 76.3582C76.9603 87.5114 77.1815 105.58 82.9353 120.748C83.8205 123.202 82.714 126.102 79.6158 126.994C76.9602 127.663 75.1898 125.879 74.0833 123.871C72.0916 120.302 70.0999 116.51 68.9934 112.495C67.2229 106.472 64.3461 101.341 60.3626 96.6571C54.1662 89.7421 46.8632 89.9651 39.5602 93.088C30.4868 96.8801 27.3886 104.687 27.1673 114.279C26.946 122.31 30.7081 126.994 38.0111 129.448C42.4371 131.009 47.5271 132.347 51.068 135.917C54.8301 139.486 56.1579 143.501 52.6171 147.962C48.4124 153.316 44.429 150.193 41.1094 147.07C36.9047 143.278 33.5851 138.37 29.159 135.024C16.9874 125.433 8.57806 124.54 3.26682 131.232C-2.70833 138.816 -0.937943 148.185 12.3402 156.885C33.3638 170.715 39.7816 191.014 41.552 214.212C42.8798 232.727 49.5188 248.787 60.8052 263.287C69.2147 273.994 75.6325 288.939 86.4763 294.293Z" fill="white"/>
</svg>
